<svg width="102" height="83" viewBox="0 0 102 83" fill="none" xmlns="http://www.w3.org/2000/svg">
<path fill-rule="evenodd" clip-rule="evenodd" d="M41.8345 28.7724C34.8756 30.269 29.661 36.4364 29.661 43.8171C29.661 47.7373 31.1321 51.3152 33.5543 54.0327C32.4986 54.2598 31.4028 54.3793 30.2789 54.3793C21.7467 54.3793 14.8301 47.4884 14.8301 38.988C14.8301 30.4876 21.7467 23.5967 30.2789 23.5967C34.8762 23.5967 39.0045 25.5973 41.8345 28.7724Z" fill="white"/>
<ellipse cx="30.2791" cy="9.35552" rx="9.39046" ry="9.35552" fill="white"/>
<path fill-rule="evenodd" clip-rule="evenodd" d="M59.3218 28.7724C66.2807 30.2691 71.4952 36.4364 71.4952 43.8171C71.4952 47.7373 70.0241 51.3152 67.6019 54.0327C68.6576 54.2598 69.7535 54.3793 70.8774 54.3793C79.4095 54.3793 86.3262 47.4884 86.3262 38.988C86.3262 30.4876 79.4095 23.5967 70.8774 23.5967C66.2801 23.5967 62.1518 25.5973 59.3218 28.7724Z" fill="white"/>
<ellipse rx="9.39046" ry="9.35552" transform="matrix(-1 0 0 1 70.8771 9.35552)" fill="white"/>
<ellipse cx="50.0523" cy="43.9324" rx="15.4488" ry="15.3913" fill="white"/>
<ellipse cx="50.0526" cy="14.2999" rx="9.39046" ry="9.35552" fill="white"/>
<rect y="34.6064" width="101.344" height="48.2003" rx="6.17953" fill="#B28B00"/>
<path d="M29.681 64.9648V50.9064H34.6053C36.3111 50.9064 37.605 51.2347 38.4868 51.8913C39.3687 52.5414 39.8096 53.4973 39.8096 54.759C39.8096 55.4477 39.6326 56.056 39.2786 56.5839C38.9245 57.1053 38.4321 57.4883 37.8013 57.7329C38.5222 57.9131 39.0887 58.2768 39.5007 58.8239C39.9191 59.3711 40.1283 60.0405 40.1283 60.8323C40.1283 62.1841 39.697 63.2075 38.8344 63.9027C37.9719 64.5979 36.7424 64.952 35.146 64.9648H29.681ZM32.5777 58.8432V62.6379H35.0591C35.7414 62.6379 36.2725 62.4769 36.6523 62.1551C37.0385 61.8268 37.2316 61.3762 37.2316 60.8033C37.2316 59.5159 36.5654 58.8626 35.2329 58.8432H32.5777ZM32.5777 56.7963H34.7212C36.1824 56.7705 36.913 56.188 36.913 55.0486C36.913 54.4114 36.7263 53.9543 36.353 53.6776C35.986 53.3943 35.4035 53.2527 34.6053 53.2527H32.5777V56.7963ZM41.6925 59.6447C41.6925 58.6083 41.892 57.6846 42.2911 56.8735C42.6902 56.0625 43.2631 55.4349 44.0098 54.9907C44.7629 54.5465 45.6351 54.3245 46.6264 54.3245C48.0361 54.3245 49.1851 54.7558 50.0734 55.6183C50.9682 56.4809 51.467 57.6524 51.57 59.1329L51.5894 59.8474C51.5894 61.4502 51.142 62.7376 50.2472 63.7096C49.3525 64.6752 48.152 65.158 46.6457 65.158C45.1395 65.158 43.9358 64.6752 43.0346 63.7096C42.1398 62.7441 41.6925 61.4309 41.6925 59.7702V59.6447ZM44.4829 59.8474C44.4829 60.8387 44.6696 61.5983 45.0429 62.1261C45.4163 62.6475 45.9505 62.9082 46.6457 62.9082C47.3216 62.9082 47.8495 62.6507 48.2292 62.1358C48.609 61.6144 48.7989 60.784 48.7989 59.6447C48.7989 58.6727 48.609 57.9195 48.2292 57.3853C47.8495 56.851 47.3152 56.5839 46.6264 56.5839C45.9441 56.5839 45.4163 56.851 45.0429 57.3853C44.6696 57.9131 44.4829 58.7338 44.4829 59.8474ZM52.8735 59.6447C52.8735 58.6083 53.0731 57.6846 53.4722 56.8735C53.8713 56.0625 54.4442 55.4349 55.1909 54.9907C55.944 54.5465 56.8162 54.3245 57.8075 54.3245C59.2172 54.3245 60.3662 54.7558 61.2545 55.6183C62.1493 56.4809 62.6481 57.6524 62.7511 59.1329L62.7704 59.8474C62.7704 61.4502 62.3231 62.7376 61.4283 63.7096C60.5336 64.6752 59.3331 65.158 57.8268 65.158C56.3206 65.158 55.1168 64.6752 54.2157 63.7096C53.3209 62.7441 52.8735 61.4309 52.8735 59.7702V59.6447ZM55.664 59.8474C55.664 60.8387 55.8507 61.5983 56.224 62.1261C56.5973 62.6475 57.1316 62.9082 57.8268 62.9082C58.5027 62.9082 59.0305 62.6507 59.4103 62.1358C59.7901 61.6144 59.98 60.784 59.98 59.6447C59.98 58.6727 59.7901 57.9195 59.4103 57.3853C59.0305 56.851 58.4963 56.5839 57.8075 56.5839C57.1252 56.5839 56.5973 56.851 56.224 57.3853C55.8507 57.9131 55.664 58.7338 55.664 59.8474ZM68.2837 60.7744L67.2796 61.7785V64.9648H64.4891V50.134H67.2796V58.3508L67.8203 57.6556L70.4948 54.5176H73.8453L70.07 58.8722L74.1736 64.9648H70.968L68.2837 60.7744Z" fill="white"/>
</svg>
