<svg width="202" height="54" viewBox="0 0 202 54" fill="none" xmlns="http://www.w3.org/2000/svg">
<path fill-rule="evenodd" clip-rule="evenodd" d="M131.672 18.0601C128.798 20.9573 127.023 24.9456 127.023 29.3485C127.023 38.2022 134.201 45.3796 143.055 45.3796C151.908 45.3796 159.086 38.2022 159.086 29.3485C159.086 24.9456 157.311 20.9573 154.437 18.0601C152.006 21.7643 147.816 24.2104 143.055 24.2104C138.293 24.2104 134.103 21.7643 131.672 18.0601ZM133.995 16.121C136.572 14.3523 139.693 13.3174 143.055 13.3174C146.417 13.3174 149.537 14.3523 152.114 16.121C150.252 19.173 146.891 21.2104 143.055 21.2104C139.218 21.2104 135.857 19.173 133.995 16.121Z" fill="white"/>
<circle cx="143.054" cy="10.6052" r="10.6052" fill="white"/>
<path fill-rule="evenodd" clip-rule="evenodd" d="M174.33 18.0601C171.457 20.9574 169.682 24.9457 169.682 29.3485C169.682 38.2022 176.859 45.3796 185.713 45.3796C194.566 45.3796 201.744 38.2022 201.744 29.3485C201.744 24.9456 199.969 20.9573 197.095 18.06C194.665 21.7642 190.474 24.2104 185.713 24.2104C180.951 24.2104 176.761 21.7643 174.33 18.0601ZM176.653 16.1211C179.23 14.3524 182.351 13.3174 185.713 13.3174C189.075 13.3174 192.195 14.3523 194.772 16.1209C192.91 19.1729 189.549 21.2104 185.713 21.2104C181.876 21.2104 178.515 19.173 176.653 16.1211Z" fill="white"/>
<circle cx="185.713" cy="10.6052" r="10.6052" fill="white"/>
<ellipse cx="163.85" cy="33.6243" rx="22.9496" ry="18.6799" fill="#121212"/>
<path fill-rule="evenodd" clip-rule="evenodd" d="M151.022 20.8633C147.417 24.2975 145.17 29.1449 145.17 34.5171C145.17 44.9298 153.611 53.371 164.024 53.371C174.437 53.371 182.878 44.9298 182.878 34.5171C182.878 29.1449 180.631 24.2975 177.026 20.8633C174.27 25.1246 169.476 27.9448 164.024 27.9448C158.572 27.9448 153.778 25.1246 151.022 20.8633ZM153.369 18.96C156.4 16.8801 160.07 15.6631 164.024 15.6631C167.978 15.6631 171.647 16.8801 174.678 18.96C172.488 22.5489 168.536 24.9448 164.024 24.9448C159.512 24.9448 155.559 22.5489 153.369 18.96Z" fill="white"/>
<circle cx="164.023" cy="12.4726" r="12.4726" fill="white"/>
<path fill-rule="evenodd" clip-rule="evenodd" d="M5.85214 20.8633C2.24687 24.2974 0 29.1449 0 34.5171C0 44.9298 8.44121 53.371 18.854 53.371C29.2667 53.371 37.708 44.9298 37.708 34.5171C37.708 29.1449 35.4611 24.2975 31.8559 20.8633C29.1 25.1246 24.3064 27.9448 18.854 27.9448C13.4016 27.9448 8.60795 25.1245 5.85214 20.8633ZM8.19949 18.96C11.2306 16.8801 14.9002 15.6631 18.854 15.6631C22.8078 15.6631 26.4774 16.8801 29.5085 18.9601C27.3184 22.5489 23.366 24.9448 18.854 24.9448C14.342 24.9448 10.3896 22.5489 8.19949 18.96Z" fill="white"/>
<circle cx="18.8535" cy="12.4726" r="12.4726" fill="white"/>
<line x1="57.0059" y1="32.6582" x2="108.445" y2="32.6582" stroke="#B28B00" stroke-width="3" stroke-linecap="round"/>
</svg>
