<svg width="136" height="99" viewBox="0 0 136 99" fill="none" xmlns="http://www.w3.org/2000/svg">
<line x1="41" y1="85" x2="95" y2="85" stroke="#B28B00" stroke-width="2" stroke-linecap="round"/>
<line x1="35" y1="67.6512" x2="53.5858" y2="49.0654" stroke="#B28B00" stroke-width="2" stroke-linecap="round"/>
<line x1="1" y1="-1" x2="27.2843" y2="-1" transform="matrix(0.707107 0.707107 0.707107 -0.707107 80 48.0654)" stroke="#B28B00" stroke-width="2" stroke-linecap="round"/>
<path fill-rule="evenodd" clip-rule="evenodd" d="M55.4417 17.5777C52.6941 20.3812 51 24.221 51 28.4566C51 37.041 57.9591 44 66.5435 44C75.1279 44 82.087 37.041 82.087 28.4566C82.087 24.221 80.3928 20.3812 77.6452 17.5777C75.2703 21.1845 71.1849 23.5652 66.5435 23.5652C61.902 23.5652 57.8166 21.1845 55.4417 17.5777ZM57.7597 15.6312C60.2586 13.9165 63.2839 12.9131 66.5435 12.9131C69.8031 12.9131 72.8284 13.9165 75.3273 15.6312C73.5218 18.59 70.2633 20.5652 66.5435 20.5652C62.8237 20.5652 59.5652 18.59 57.7597 15.6312Z" fill="white"/>
<circle cx="66.5443" cy="10.2826" r="10.2826" fill="white"/>
<path fill-rule="evenodd" clip-rule="evenodd" d="M108.442 72.5777C105.694 75.3812 104 79.221 104 83.4566C104 92.041 110.959 99 119.543 99C128.128 99 135.087 92.041 135.087 83.4566C135.087 79.221 133.393 75.3812 130.645 72.5777C128.27 76.1845 124.185 78.5652 119.543 78.5652C114.902 78.5652 110.817 76.1845 108.442 72.5777ZM110.76 70.6312C113.259 68.9165 116.284 67.9131 119.543 67.9131C122.803 67.9131 125.828 68.9165 128.327 70.6312C126.522 73.59 123.263 75.5652 119.543 75.5652C115.824 75.5652 112.565 73.59 110.76 70.6312Z" fill="white"/>
<circle cx="119.544" cy="65.2826" r="10.2826" fill="white"/>
<path fill-rule="evenodd" clip-rule="evenodd" d="M4.4417 72.5777C1.69411 75.3812 0 79.221 0 83.4566C0 92.041 6.95905 99 15.5435 99C24.1279 99 31.087 92.041 31.087 83.4566C31.087 79.221 29.3928 75.3812 26.6452 72.5777C24.2703 76.1845 20.1849 78.5652 15.5435 78.5652C10.902 78.5652 6.81661 76.1845 4.4417 72.5777ZM6.75967 70.6312C9.25858 68.9165 12.2839 67.9131 15.5435 67.9131C18.8031 67.9131 21.8284 68.9165 24.3273 70.6312C22.5218 73.59 19.2633 75.5652 15.5435 75.5652C11.8237 75.5652 8.56519 73.59 6.75967 70.6312Z" fill="white"/>
<circle cx="15.5443" cy="65.2826" r="10.2826" fill="white"/>
</svg>
