<svg xmlns="http://www.w3.org/2000/svg" width="107" height="46" fill="none" viewBox="0 0 107 46">
    <mask id="a" fill="#fff">
        <path fill-rule="evenodd" d="M0 3a3 3 0 0 1 3-3h101a3 3 0 0 1 3 3v7.289c0 .474-.252.91-.646 1.174-3.875 2.6-6.42 6.989-6.42 11.964 0 4.975 2.545 9.364 6.42 11.964.394.264.646.7.646 1.174v6.292a3 3 0 0 1-3 3H3a3 3 0 0 1-3-3v-6.292c0-.474.252-.91.646-1.174 3.875-2.6 6.42-6.989 6.42-11.964 0-4.976-2.545-9.364-6.42-11.964A1.425 1.425 0 0 1 0 10.289V3z" clip-rule="evenodd"/>
    </mask>
    <path fill="#fff" d="M.646 11.463l-1.672 2.49 1.672-2.49zM106.354 35.39l1.672-2.49-1.672 2.49zm0-23.928l-1.672-2.491 1.672 2.49zM3-3a6 6 0 0 0-6 6h6v-6zm101 0H3v6h101v-6zm6 6a6 6 0 0 0-6-6v6h6zm0 7.289V3h-6v7.289h6zm-7.066 13.138c0-3.924 2.003-7.4 5.092-9.473l-3.344-4.982c-4.66 3.128-7.748 8.427-7.748 14.455h6zm5.092 9.473c-3.089-2.073-5.092-5.55-5.092-9.473h-6c0 6.027 3.088 11.327 7.748 14.455l3.344-4.982zM110 42.857v-6.292h-6v6.292h6zm-6 6a6 6 0 0 0 6-6h-6v6zm-101 0h101v-6H3v6zm-6-6a6 6 0 0 0 6 6v-6h-6zm0-6.292v6.292h6v-6.292h-6zm7.066-13.138c0 3.923-2.003 7.4-5.092 9.473l3.344 4.982c4.66-3.128 7.748-8.428 7.748-14.455h-6zm-5.092-9.473c3.09 2.073 5.092 5.55 5.092 9.473h6c0-6.027-3.088-11.327-7.748-14.455l-3.344 4.982zM-3 3v7.289h6V3h-6zm5.318 5.972c.363.244.682.707.682 1.317h-6c0 1.558.823 2.892 1.974 3.665l3.344-4.982zM3 36.565c0 .61-.319 1.073-.682 1.317L-1.026 32.9C-2.177 33.673-3 35.007-3 36.565h6zm101.682 1.317a1.578 1.578 0 0 1-.682-1.317h6c0-1.558-.823-2.892-1.974-3.665l-3.344 4.982zM104 10.29c0-.61.319-1.073.682-1.317l3.344 4.982c1.151-.773 1.974-2.107 1.974-3.665h-6z" mask="url(#a)"/>
    <path stroke="#B28B00" stroke-linecap="round" stroke-width="3" d="M21.689 6.484v2.982M21.689 16.453v2.982M21.689 26.422v2.982M21.689 36.392v2.981"/>
</svg>
